<svg width="41" height="41" viewBox="0 0 41 41" fill="none" xmlns="http://www.w3.org/2000/svg">
<circle cx="20.5" cy="20.5" r="20.5" fill="#D9D9D9"/>
<g clip-path="url(#clip0_656_5)">
<path d="M20.0036 17.9571C17.7321 17.9571 15.9 19.7606 15.9 21.9965C15.9 24.2325 17.7321 26.036 20.0036 26.036C22.275 26.036 24.1071 24.2325 24.1071 21.9965C24.1071 19.7606 22.275 17.9571 20.0036 17.9571ZM20.0036 24.6227C18.5357 24.6227 17.3357 23.445 17.3357 21.9965C17.3357 20.5481 18.5321 19.3704 20.0036 19.3704C21.475 19.3704 22.6714 20.5481 22.6714 21.9965C22.6714 23.445 21.4714 24.6227 20.0036 24.6227ZM25.2321 17.7918C25.2321 18.3157 24.8036 18.734 24.275 18.734C23.7429 18.734 23.3179 18.3122 23.3179 17.7918C23.3179 17.2715 23.7464 16.8497 24.275 16.8497C24.8036 16.8497 25.2321 17.2715 25.2321 17.7918ZM27.95 18.7481C27.8893 17.486 27.5964 16.368 26.6571 15.4469C25.7214 14.5258 24.5857 14.2375 23.3036 14.1743C21.9821 14.1004 18.0214 14.1004 16.7 14.1743C15.4214 14.234 14.2857 14.5223 13.3464 15.4434C12.4071 16.3645 12.1179 17.4825 12.0536 18.7446C11.9786 20.0454 11.9786 23.9442 12.0536 25.245C12.1143 26.5071 12.4071 27.625 13.3464 28.5461C14.2857 29.4672 15.4179 29.7555 16.7 29.8188C18.0214 29.8926 21.9821 29.8926 23.3036 29.8188C24.5857 29.759 25.7214 29.4708 26.6571 28.5461C27.5928 27.625 27.8857 26.5071 27.95 25.245C28.025 23.9442 28.025 20.0489 27.95 18.7481ZM26.2428 26.6407C25.9643 27.3297 25.425 27.8606 24.7214 28.1383C23.6679 28.5497 21.1678 28.4547 20.0036 28.4547C18.8393 28.4547 16.3357 28.5461 15.2857 28.1383C14.5857 27.8641 14.0464 27.3333 13.7643 26.6407C13.3464 25.6036 13.4429 23.1426 13.4429 21.9965C13.4429 20.8504 13.35 18.386 13.7643 17.3524C14.0429 16.6633 14.5821 16.1325 15.2857 15.8547C16.3393 15.4434 18.8393 15.5383 20.0036 15.5383C21.1678 15.5383 23.6714 15.4469 24.7214 15.8547C25.4214 16.129 25.9607 16.6598 26.2428 17.3524C26.6607 18.3895 26.5643 20.8504 26.5643 21.9965C26.5643 23.1426 26.6607 25.6071 26.2428 26.6407Z" fill="black"/>
</g>
<defs>
<clipPath id="clip0_656_5">
<rect width="16" height="18" fill="white" transform="translate(12 13)"/>
</clipPath>
</defs>
</svg>
