<svg width="41" height="41" viewBox="0 0 41 41" fill="none" xmlns="http://www.w3.org/2000/svg">
<circle cx="20.5" cy="20.5" r="20.5" fill="#D9D9D9"/>
<path d="M27.2525 16.0374C27.2633 16.1884 27.2633 16.3395 27.2633 16.4905C27.2633 21.0964 23.7576 26.4035 17.3503 26.4035C15.3763 26.4035 13.5425 25.8318 12 24.8395C12.2805 24.8718 12.5501 24.8826 12.8414 24.8826C14.4701 24.8826 15.9695 24.3325 17.1669 23.394C15.6351 23.3617 14.3515 22.3585 13.9092 20.9778C14.125 21.0101 14.3407 21.0317 14.5673 21.0317C14.8801 21.0317 15.1929 20.9885 15.4841 20.9131C13.8877 20.5894 12.6903 19.1872 12.6903 17.4936V17.4505C13.1541 17.7094 13.6935 17.8712 14.2652 17.8927C13.3267 17.2671 12.7119 16.1992 12.7119 14.9911C12.7119 14.3439 12.8845 13.7506 13.1865 13.2328C14.9016 15.347 17.4797 16.7277 20.3705 16.8788C20.3166 16.6199 20.2842 16.3502 20.2842 16.0806C20.2842 14.1605 21.8375 12.5964 23.7683 12.5964C24.7715 12.5964 25.6776 13.0171 26.314 13.6967C27.1014 13.5457 27.8565 13.2544 28.5253 12.8553C28.2664 13.6643 27.7163 14.3439 26.9936 14.7754C27.6948 14.6999 28.3743 14.5057 28.9999 14.236C28.5254 14.9264 27.9321 15.5412 27.2525 16.0374Z" fill="black"/>
</svg>
