<svg width="50" height="48" viewBox="0 0 50 48" fill="none" xmlns="http://www.w3.org/2000/svg">
<path d="M0.5 10.1431C0.5 4.89637 4.7533 0.643066 10 0.643066H40C45.2467 0.643066 49.5 4.89636 49.5 10.1431V37.8421C49.5 43.0888 45.2467 47.3421 40 47.3421H10C4.75329 47.3421 0.5 43.0888 0.5 37.8421V10.1431Z" fill="#35736E" stroke="#C4C4C4"/>
<g clip-path="url(#clip0_644_8)">
<path d="M39.213 9.98541C39.7851 10.3637 40.0853 11.0175 39.9777 11.6713L36.3527 34.1494C36.2677 34.6736 35.9335 35.1328 35.4464 35.3922C34.9593 35.6516 34.3759 35.684 33.8605 35.4787L26.7068 32.6419L24.4355 36.6674C24.141 37.1915 23.5123 37.4563 22.9062 37.3104C22.3002 37.1645 21.8753 36.6458 21.8753 36.0514V30.8642C21.8753 30.5778 21.9773 30.2968 22.1642 30.0699L31.5269 18.5822C31.6685 18.1986 31.1587 17.8095 30.7906 18.1283L20.6519 26.8765L18.8394 28.438C18.3183 28.8865 17.5763 29.0108 16.925 28.7514L12.1105 26.8386C11.4761 26.5847 11.0457 26.0119 11.006 25.3527C10.9664 24.6935 11.3175 24.0721 11.9179 23.7425L37.2929 9.90977C37.899 9.58016 38.6466 9.61258 39.2187 9.98541H39.213Z" fill="white"/>
</g>
<defs>
<clipPath id="clip0_644_8">
<rect width="29" height="27.6654" fill="white" transform="translate(11 9.68286)"/>
</clipPath>
</defs>
</svg>
